<svg width="320" height="229" viewBox="0 0 470 355" fill="none" xmlns="http://www.w3.org/2000/svg">
<g filter="url(#filter0_f_104_2)">
<mask id="mask0_104_2" style="mask-type:alpha" maskUnits="userSpaceOnUse" x="360" y="114" width="90" height="124">
<path d="M360 229.895V142.366L450 114V238L360 229.895Z" fill="url(#paint0_linear_104_2)"/>
</mask>
<g mask="url(#mask0_104_2)">
<g filter="url(#filter1_f_104_2)">
<path d="M360.545 208.824V168.301L451.091 144.797V220.17L360.545 208.824Z" fill="url(#paint1_linear_104_2)"/>
</g>
</g>
</g>
<path d="M281 64.0181L357.314 26L450 79.5583L357.314 113.691L281 64.0181Z" fill="url(#paint2_linear_104_2)"/>
<path d="M281 64.0181L357.314 113.136L360.366 223.028L281 174.465V64.0181Z" fill="url(#paint3_linear_104_2)"/>
<path d="M356.481 113.414L449.168 79.2808V179.737L360.366 223.028L356.481 113.414Z" fill="url(#paint4_linear_104_2)"/>
<g filter="url(#filter2_f_104_2)">
<mask id="mask1_104_2" style="mask-type:alpha" maskUnits="userSpaceOnUse" x="136" y="158" width="313" height="192">
<path d="M136 337.451V201.922L449 158V350L136 337.451Z" fill="url(#paint5_linear_104_2)"/>
</mask>
<g mask="url(#mask1_104_2)">
<g filter="url(#filter3_f_104_2)">
<path d="M137.897 304.824V242.078L452.794 205.686V322.392L137.897 304.824Z" fill="url(#paint6_linear_104_2)"/>
</g>
</g>
</g>
<path d="M0 68.5L137.5 0L304.5 96.5L137.5 158L0 68.5Z" fill="url(#paint7_linear_104_2)"/>
<path d="M0 68.5L137.5 157L143 355L0 267.5V68.5Z" fill="url(#paint8_linear_104_2)"/>
<path d="M136 157.5L303 96V277L143 355L136 157.5Z" fill="url(#paint9_linear_104_2)"/>
<defs>
<filter id="filter0_f_104_2" x="340.545" y="124.797" width="129.455" height="115.373" filterUnits="userSpaceOnUse" color-interpolation-filters="sRGB">
<feFlood flood-opacity="0" result="BackgroundImageFix"/>
<feBlend mode="normal" in="SourceGraphic" in2="BackgroundImageFix" result="shape"/>
<feGaussianBlur stdDeviation="10" result="effect1_foregroundBlur_104_2"/>
</filter>
<filter id="filter1_f_104_2" x="300.005" y="84.2574" width="211.625" height="196.453" filterUnits="userSpaceOnUse" color-interpolation-filters="sRGB">
<feFlood flood-opacity="0" result="BackgroundImageFix"/>
<feBlend mode="normal" in="SourceGraphic" in2="BackgroundImageFix" result="shape"/>
<feGaussianBlur stdDeviation="30.27" result="effect1_foregroundBlur_104_2"/>
</filter>
<filter id="filter2_f_104_2" x="127.897" y="195.686" width="331.103" height="136.706" filterUnits="userSpaceOnUse" color-interpolation-filters="sRGB">
<feFlood flood-opacity="0" result="BackgroundImageFix"/>
<feBlend mode="normal" in="SourceGraphic" in2="BackgroundImageFix" result="shape"/>
<feGaussianBlur stdDeviation="5" result="effect1_foregroundBlur_104_2"/>
</filter>
<filter id="filter3_f_104_2" x="77.357" y="145.146" width="435.977" height="237.786" filterUnits="userSpaceOnUse" color-interpolation-filters="sRGB">
<feFlood flood-opacity="0" result="BackgroundImageFix"/>
<feBlend mode="normal" in="SourceGraphic" in2="BackgroundImageFix" result="shape"/>
<feGaussianBlur stdDeviation="30.27" result="effect1_foregroundBlur_104_2"/>
</filter>
<linearGradient id="paint0_linear_104_2" x1="360" y1="195.856" x2="465.279" y2="195.122" gradientUnits="userSpaceOnUse">
<stop/>
<stop offset="0.515625" stop-opacity="0.7"/>
<stop offset="1" stop-opacity="0"/>
</linearGradient>
<linearGradient id="paint1_linear_104_2" x1="360.545" y1="193.425" x2="451.236" y2="190.116" gradientUnits="userSpaceOnUse">
<stop/>
<stop offset="1" stop-opacity="0"/>
</linearGradient>
<linearGradient id="paint2_linear_104_2" x1="357.036" y1="26" x2="380.069" y2="106.199" gradientUnits="userSpaceOnUse">
<stop stop-color="#FF00B8" stop-opacity="0.9"/>
<stop offset="0.947917" stop-color="#00ECEC" stop-opacity="0.92"/>
</linearGradient>
<linearGradient id="paint3_linear_104_2" x1="320.683" y1="64.0181" x2="320.683" y2="223.028" gradientUnits="userSpaceOnUse">
<stop stop-color="#FF00B8"/>
<stop offset="1" stop-color="#00ECEC"/>
</linearGradient>
<linearGradient id="paint4_linear_104_2" x1="356.481" y1="150.877" x2="447.225" y2="194.722" gradientUnits="userSpaceOnUse">
<stop offset="0.0001" stop-color="#FF06B9" stop-opacity="0.87"/>
<stop offset="1" stop-color="#00ECEC"/>
</linearGradient>
<linearGradient id="paint5_linear_104_2" x1="136" y1="284.745" x2="502.065" y2="279.011" gradientUnits="userSpaceOnUse">
<stop/>
<stop offset="0.515625" stop-opacity="0.7"/>
<stop offset="1" stop-opacity="0"/>
</linearGradient>
<linearGradient id="paint6_linear_104_2" x1="137.897" y1="280.98" x2="451.612" y2="255.269" gradientUnits="userSpaceOnUse">
<stop/>
<stop offset="1" stop-opacity="0"/>
</linearGradient>
<linearGradient id="paint7_linear_104_2" x1="137" y1="-4.89164e-07" x2="178.5" y2="144.5" gradientUnits="userSpaceOnUse">
<stop stop-color="#FF00B8" stop-opacity="0.9"/>
<stop offset="0.947917" stop-color="#00ECEC" stop-opacity="0.92"/>
</linearGradient>
<linearGradient id="paint8_linear_104_2" x1="71.5" y1="68.5" x2="71.5" y2="355" gradientUnits="userSpaceOnUse">
<stop stop-color="#FF00B8"/>
<stop offset="1" stop-color="#00ECEC"/>
</linearGradient>
<linearGradient id="paint9_linear_104_2" x1="136" y1="225" x2="299.5" y2="304" gradientUnits="userSpaceOnUse">
<stop offset="0.0001" stop-color="#FF06B9" stop-opacity="0.87"/>
<stop offset="1" stop-color="#00ECEC"/>
</linearGradient>
</defs>
</svg>
