<svg width="23" height="17" viewBox="0 0 23 17" fill="none" xmlns="http://www.w3.org/2000/svg">
<path d="M8.24578 16.171C2.19024 16.1809 0.0701174 12.5849 0.0628349 8.14411C0.0626662 8.04124 0.0639852 7.93838 0.0660341 7.83626C0.070139 7.63053 0.0794056 7.42627 0.0931384 7.22497C0.369992 3.2166 2.5879 0.0996989 8.21941 0.0904638C14.0463 0.0809084 21.412 7.51487 21.9583 8.0749L21.9591 8.07565C21.9806 8.09707 21.9909 8.10815 21.9909 8.10815C21.9909 8.10815 14.3006 16.161 8.24578 16.171Z" fill="url(#paint0_linear_105_3)"/>
<path d="M0.988851 7.84955L5.10224 10.7836L0.537431 7.84289L0.0660391 7.83627C0.070144 7.63054 0.0794125 7.42627 0.0931434 7.22497L6.15144 7.53176L6.19879 7.52946L6.20695 7.53463L6.77976 7.56403L11.346 4.60093L7.209 7.57222L7.08763 7.57981L11.665 7.81133L16.3844 5.27348L12.468 7.8411L21.9583 8.07491L21.9909 8.0756L21.959 8.07566L14.476 8.04649L17.4468 10.5606L13.8314 8.03718L9.73311 7.97731L13.6701 10.3234L9.12997 7.96868L6.8514 7.93542L12.3316 11.3401L6.05661 7.9234L0.988851 7.84955Z" fill="#3F3D56"/>
<defs>
<linearGradient id="paint0_linear_105_3" x1="21.9909" y1="8.10815" x2="0.0628349" y2="8.14411" gradientUnits="userSpaceOnUse">
<stop stop-color="#FF00B8" stop-opacity="0.87"/>
<stop offset="1" stop-color="#00ECEC"/>
</linearGradient>
</defs>
</svg>
